<?xml version="1.0" encoding="utf-8"?>
<!-- Generator: Adobe Illustrator 21.0.0, SVG Export Plug-In . SVG Version: 6.00 Build 0)  -->
<svg version="1.1" id="Layer_1" xmlns="http://www.w3.org/2000/svg" xmlns:xlink="http://www.w3.org/1999/xlink" x="0px" y="0px"
	 viewBox="0 0 40 40" style="enable-background:new 0 0 40 40;" xml:space="preserve">
<style type="text/css">
	.st0{fill:#10152A;}
</style>
<g>
	<path class="st0" d="M31.7,36.2c0,1.6-1.3,2.9-2.9,2.9h-1.6v-3.3c0-3.5-2.8-6.3-6.3-6.3h-1.7c-3.5,0-6.3,2.8-6.3,6.3v3.3h-1.6
		c-1.6,0-2.9-1.3-2.9-2.9V21.3H7.4v14.8c0,2.1,1.7,3.8,3.8,3.8h1.6h14.4h1.6c2.1,0,3.8-1.7,3.8-3.8V21.3h-0.9V36.2z M19.1,30.4h1.7
		c1.9,0,3.6,1,4.5,2.5H14.6C15.6,31.4,17.3,30.4,19.1,30.4z M13.7,39.1v-3.3c0-1,0.3-1.9,0.7-2.6v0.6h11.1v-0.6
		c0.4,0.8,0.7,1.7,0.7,2.6v3.3H13.7z"/>
	<path class="st0" d="M33.9,14.6c0-5.2-3.8-9.5-8.8-10.4V2.8c0-1.6-1.3-2.8-2.8-2.8h-4.7c-1.6,0-2.8,1.3-2.8,2.8v1.4
		C9.9,5,6.1,9.4,6.1,14.6V16c0,2.5,2,4.5,4.5,4.5h0.2v2.3H9.8v2.9h0.9v1c0,0.9,0.8,1.7,1.7,1.7h0.2c0.9,0,1.7-0.8,1.7-1.7v-1h1.1
		v-2.9h-1.1v-2.3h10.8v2.3h-0.9v2.9h0.9v1c0,0.9,0.8,1.7,1.7,1.7h0.2c0.9,0,1.7-0.8,1.7-1.7v-1h1.1v-2.9h-1.1v-2.3h0.6
		c2.5,0,4.5-2,4.5-4.5V14.6z M15.7,2.8c0-1,0.9-1.9,1.9-1.9h4.7c1,0,1.9,0.9,1.9,1.9v1.3c-0.1,0-0.3,0-0.4,0V2.8
		c0-0.8-0.7-1.5-1.5-1.5h-4.7c-0.8,0-1.5,0.7-1.5,1.5v1.2c-0.1,0-0.3,0-0.4,0V2.8z M22.9,4h-5.8V2.8c0-0.3,0.2-0.6,0.6-0.6h4.7
		c0.3,0,0.6,0.2,0.6,0.6V4z M10.8,24.8v-1.1h0L10.8,24.8L10.8,24.8z M11.7,23.7h1.8v1.1h-1.8V23.7z M13.5,26.7
		c0,0.4-0.3,0.8-0.8,0.8h-0.2c-0.4,0-0.8-0.3-0.8-0.8v-1h1.8V26.7z M14.6,23.7v1.1h-0.2v-1.1H14.6z M13.5,22.7h-1.8v-2.3h1.8V22.7z
		 M13.5,19.5h-1.8v-3.4c0-0.4,0.3-0.8,0.8-0.8h0.2c0.4,0,0.8,0.3,0.8,0.8V19.5z M25.2,24.8v-1.1h0L25.2,24.8L25.2,24.8z M26.1,23.7
		h1.8v1.1h-1.8V23.7z M27.9,26.7c0,0.4-0.3,0.8-0.8,0.8h-0.2c-0.4,0-0.8-0.3-0.8-0.8v-1h1.8V26.7z M29,23.7v1.1h-0.2v-1.1H29z
		 M27.9,22.7h-1.8v-2.3h1.8V22.7z M27.9,19.5h-1.8v-3.4c0-0.4,0.3-0.8,0.8-0.8h0.2c0.4,0,0.8,0.3,0.8,0.8V19.5z M33,16
		c0,2-1.6,3.6-3.6,3.6h-0.6v-3.4c0-0.9-0.8-1.7-1.7-1.7h-0.2c-0.9,0-1.7,0.8-1.7,1.7v3.4H14.4v-3.4c0-0.9-0.8-1.7-1.7-1.7h-0.2
		c-0.9,0-1.7,0.8-1.7,1.7v3.4h-0.2c-2,0-3.6-1.6-3.6-3.6v-1.4C7,9.3,11.3,5,16.6,5h6.8c5.3,0,9.6,4.3,9.6,9.6V16z"/>
	<path class="st0" d="M2,26.1v7.4c0,2.1,1.7,3.8,3.8,3.8h0.7v-0.9H5.8c-1.6,0-2.9-1.3-2.9-2.9v-7.4c0-1.6,1.3-2.9,2.9-2.9h0.7v-0.9
		H5.8C3.7,22.2,2,24,2,26.1z"/>
	<path class="st0" d="M34.2,22.2h-0.7v0.9h0.7c1.6,0,2.9,1.3,2.9,2.9v7.4c0,1.6-1.3,2.9-2.9,2.9h-0.7v0.9h0.7c2.1,0,3.8-1.7,3.8-3.8
		v-7.4C38,24,36.3,22.2,34.2,22.2z"/>
	<path class="st0" d="M22.6,8.8h-5.3c-0.9,0-1.7,0.8-1.7,1.7v0.2c0,0.9,0.8,1.7,1.7,1.7h5.3c0.9,0,1.7-0.8,1.7-1.7v-0.2
		C24.3,9.5,23.6,8.8,22.6,8.8z M23.4,10.7c0,0.4-0.3,0.8-0.8,0.8h-5.3c-0.4,0-0.8-0.3-0.8-0.8v-0.2c0-0.4,0.3-0.8,0.8-0.8h5.3
		c0.4,0,0.8,0.3,0.8,0.8V10.7z"/>
	<rect x="18.1" y="10.1" class="st0" width="3.7" height="0.9"/>
</g>
</svg>
