<svg xmlns="http://www.w3.org/2000/svg" viewBox="0 0 73.47 104.28"><defs><style>.cls-1{fill:#fff;stroke:#000;stroke-miterlimit:10;stroke-width:2px;}</style></defs><title>child-seat</title><g id="Layer_2" data-name="Layer 2"><g id="Layer_1-2" data-name="Layer 1"><g id="aufpreis"><path class="cls-1" d="M62.91,88.48l0,0a11,11,0,0,0-7.09-2.5H17.7a11,11,0,0,0-7.09,2.5l0,0a8.1,8.1,0,0,0-3,6.13.41.41,0,0,0,0,.08c0,4.75,4.55,8.59,10.09,8.59H55.77c5.54,0,10-3.84,10.09-8.59a.41.41,0,0,0,0-.08A8.1,8.1,0,0,0,62.91,88.48Z"/><path class="cls-1" d="M71.71,79.41a12.54,12.54,0,0,0-2.87-4.65h0l0,0A12.23,12.23,0,0,0,60.06,71H13.41a12.23,12.23,0,0,0-8.74,3.68l0,0h0a12.68,12.68,0,0,0,3,19.93,12.17,12.17,0,0,0,5.8,1.47H60.06a12.17,12.17,0,0,0,5.8-1.47,12.68,12.68,0,0,0,5.85-15.28Z"/><path class="cls-1" d="M68.84,74.76h0L66.59,65l-.21-.91H7.09L6.88,65,4.63,74.75h0L4.09,77.1a13.12,13.12,0,0,0,3.48,8.7,15.91,15.91,0,0,0,3,2.65,15.05,15.05,0,0,0,8.27,2.63H54.59a15.05,15.05,0,0,0,8.27-2.63,15.91,15.91,0,0,0,3-2.65,13.12,13.12,0,0,0,3.48-8.7Z"/><path class="cls-1" d="M60.59,1.29h-.35s-.81.19-2.26.47A114.73,114.73,0,0,1,37.31,3.67H36.16A114.73,114.73,0,0,1,15.49,1.75c-1.45-.28-2.26-.47-2.26-.47h-.35a9.58,9.58,0,0,0-9.21,9.54L6.47,63l.07,1.29a.69.69,0,0,0,.06.29,1.12,1.12,0,0,0,.27.38c.88.85,3.45,1.53,7.06,2,.88.13,1.82.25,2.81.35,1.88.2,3.94.37,6.12.5,2.41.15,5,.25,7.59.31,2.07,0,4.18.07,6.28.06s4.21,0,6.28-.06c2.62-.06,5.18-.16,7.59-.31,2.18-.13,4.25-.3,6.12-.5,1-.11,1.93-.22,2.81-.35,3.61-.52,6.18-1.2,7.06-2a1.12,1.12,0,0,0,.27-.38.69.69,0,0,0,.06-.29L67,63l2.79-52.21A9.58,9.58,0,0,0,60.59,1.29Z"/><path class="cls-1" d="M60.83,31.19c1.65,16.36,5.49,33.34,6,33.43,0,0,.06-.09.06-.29l2.87-53.5a9.58,9.58,0,0,0-9.21-9.54h-.35S60,4.13,60,8.6A198.08,198.08,0,0,0,60.83,31.19Z"/><path class="cls-1" d="M12.64,31.19C11,47.55,7.15,64.54,6.61,64.63c0,0-.06-.09-.06-.29L3.68,10.84a9.58,9.58,0,0,1,9.21-9.54h.35s.19,2.84.26,7.32A198.08,198.08,0,0,1,12.64,31.19Z"/><path class="cls-1" d="M21.19,28.6H52.27a3.63,3.63,0,1,0,0-7.26H21.19a3.63,3.63,0,0,0,0,7.26Z"/><path class="cls-1" d="M52.27,31.2H21.19a3.63,3.63,0,0,0,0,7.26H52.27a3.63,3.63,0,1,0,0-7.26Z"/><path class="cls-1" d="M52.27,41H21.19a3.63,3.63,0,0,0,0,7.26H52.27a3.63,3.63,0,1,0,0-7.26Z"/><path class="cls-1" d="M59.25,71.3,59.08,71l-.63-1L56.72,67.4l-.18-.28-2-3L50.81,58.3l-.3-.45-1.28-2-.11-.16-4.8-7.41-.42-.65L39.63,41l-.33-.52,1.35-2.08.21-.32.92-1.42,3.57-5.52.15-.23L47,28.6l.13-.21,2-3.07,2.57-4,.08-.12L60,8.6c.07-4.48.26-7.32.26-7.32s-.81.19-2.26.47L48.21,16.83,45.5,21l-.22.34-4.42,6.83-.28.43L39.2,30.74l-.3.45-.1.15-2.07,3.2-2.07-3.2-.1-.15-.3-.45L32.88,28.6l-.28-.43-4.42-6.83L28,21l-2.71-4.17L15.49,1.75c-1.45-.28-2.26-.47-2.26-.47s.19,2.84.26,7.32l8.18,12.63.08.12,2.57,4,2,3.07.13.21L28,31l.15.23,3.57,5.52.92,1.42.21.32,1.35,2.08-.33.52-4.29,6.61-.42.65-4.8,7.41-.11.16-1.28,2-.3.45L18.9,64.09l-2,3-.18.28L15,70.06l-.63,1-.17.27-1,11.4v.06L20.85,71l2-3.12.11-.16,2.37-3.65.39-.6,4-6.13.21-.32,1.63-2.52.12-.18,3.91-6,.28-.43.88-1.37.88,1.37.28.43,3.91,6,.12.18L43.56,57l.21.32,4,6.13.39.6,2.37,3.65.11.16,2,3.12,7.61,11.73V82.7Z"/><ellipse class="cls-1" cx="8.26" cy="74.27" rx="7.26" ry="11.58"/><ellipse class="cls-1" cx="65.21" cy="74.27" rx="7.26" ry="11.58"/><path class="cls-1" d="M42.32,68a3.08,3.08,0,0,0-.67-.52A3.22,3.22,0,0,0,40,67H33.45a3.22,3.22,0,0,0-1.63.44,3.08,3.08,0,0,0-.67.52,3.27,3.27,0,0,0,2.31,5.57H40A3.27,3.27,0,0,0,42.32,68Z"/></g></g></g></svg>