<?xml version="1.0" encoding="utf-8"?>
<!-- Generator: Adobe Illustrator 21.0.0, SVG Export Plug-In . SVG Version: 6.00 Build 0)  -->
<svg version="1.1" id="Layer_1" xmlns="http://www.w3.org/2000/svg" xmlns:xlink="http://www.w3.org/1999/xlink" x="0px" y="0px"
	 viewBox="0 0 40 40" style="enable-background:new 0 0 40 40;" xml:space="preserve">
<style type="text/css">
	.st0{fill:#10152A;}
</style>
<g>
	<path class="st0" d="M19.5,11.7h-5c-5.3,0-9.6,4.3-9.6,9.6v7.6c0,3.7,2.1,6.9,5.2,8.5v1.1h1.2c-0.1,0.3-0.4,0.5-0.8,0.5
		c-0.5,0-0.8-0.4-0.8-0.8H8.7c0,1,0.8,1.8,1.8,1.8c0.9,0,1.6-0.6,1.7-1.5h2.3h5h2.3c0.1,0.8,0.8,1.5,1.7,1.5c1,0,1.8-0.8,1.8-1.8
		h-0.9c0,0.5-0.4,0.8-0.8,0.8c-0.4,0-0.7-0.2-0.8-0.5h1.2v-1.1c3.1-1.6,5.2-4.8,5.2-8.5v-7.6C29.1,16,24.8,11.7,19.5,11.7z
		 M14.5,37.6c-1.3,0-2.4-0.3-3.5-0.8v-9.3c0-0.5,0.1-1.1,0.3-1.5h11.6c0.1,0.5,0.3,1,0.3,1.5v9.3c-1.1,0.5-2.3,0.8-3.5,0.8H14.5z
		 M11.6,25.1c0.9-1.8,2.7-3,4.8-3h1.2c2.1,0,3.9,1.2,4.8,3H11.6z M28.2,28.9c0,3.2-1.7,5.9-4.3,7.5v-8.8c0-0.8-0.2-1.6-0.5-2.3v-0.1
		h0c-1-2.3-3.2-3.9-5.9-3.9h-1.2c-2.6,0-4.9,1.6-5.9,3.9h0v0.1C10.2,26,10,26.8,10,27.6v8.8c-2.5-1.5-4.3-4.3-4.3-7.5v-7.6
		c0-4.8,3.9-8.7,8.7-8.7h5c4.8,0,8.7,3.9,8.7,8.7V28.9z"/>
	<path class="st0" d="M22.3,10.8V5.6c0-2-1.7-3.7-3.7-3.7h-3.2c-2,0-3.7,1.7-3.7,3.7v5.2h0.9V5.6c0-1.5,1.2-2.8,2.8-2.8h3.2
		c1.5,0,2.8,1.2,2.8,2.8v5.2H22.3z"/>
	<path class="st0" d="M10.6,5.3c0-2.4,2-4.4,4.4-4.4h3.9c2.4,0,4.4,2,4.4,4.4v2.5h-1v0.9h1v2.1h0.9V8.7h2V7.8h-2V5.3
		c0-2.9-2.4-5.3-5.3-5.3H15c-2.9,0-5.3,2.4-5.3,5.3v5.5h0.9V5.3z"/>
	<path class="st0" d="M20.2,28.6v-0.1c0-0.7-0.5-1.2-1.2-1.2h-4c-0.7,0-1.2,0.5-1.2,1.2v0.1c0,0.7,0.5,1.2,1.2,1.2h4
		C19.6,29.8,20.2,29.2,20.2,28.6z M19.3,28.6c0,0.2-0.1,0.3-0.3,0.3h-4c-0.2,0-0.3-0.1-0.3-0.3v-0.1c0-0.2,0.1-0.3,0.3-0.3h4
		c0.2,0,0.3,0.1,0.3,0.3V28.6z"/>
	<path class="st0" d="M34.3,7.2L29.6,6c-0.3-0.1-0.7,0-1,0.2l-1.9,1.5C26.4,8,26.2,8.6,26.4,9l0.9,2.2c0.1,0.3,0.4,0.6,0.7,0.7
		l4.7,1.2c0.1,0,0.2,0,0.3,0c0.2,0,0.4-0.1,0.6-0.2c0.3-0.2,0.4-0.4,0.5-0.7l1-3.8C35.3,8,34.9,7.4,34.3,7.2z M33.3,12.1
		c0,0.1-0.1,0.1-0.1,0.1c0,0-0.1,0-0.1,0L28.3,11c-0.1,0-0.1-0.1-0.1-0.1l-0.9-2.2c0-0.1,0-0.2,0.1-0.2l1.9-1.5c0,0,0.1,0,0.1,0
		c0,0,0,0,0,0l4.7,1.2c0.1,0,0.2,0.1,0.1,0.2L33.3,12.1z"/>
	<rect x="29.1" y="8.9" transform="matrix(0.2517 -0.9678 0.9678 0.2517 13.7165 36.4498)" class="st0" width="2.6" height="0.9"/>
	<rect x="31" y="9.4" transform="matrix(0.2499 -0.9683 0.9683 0.2499 14.7088 38.6719)" class="st0" width="2.6" height="0.9"/>
	<path class="st0" d="M23.9,14.8h-3.6v0.9h3.6c0.6,0,1.2,0.5,1.2,1.2v3.6H26v-3.6C26,15.7,25.1,14.8,23.9,14.8z"/>
</g>
</svg>
