<?xml version="1.0" encoding="utf-8"?>
<!-- Generator: Adobe Illustrator 21.0.0, SVG Export Plug-In . SVG Version: 6.00 Build 0)  -->
<svg version="1.1" id="Layer_1" xmlns="http://www.w3.org/2000/svg" xmlns:xlink="http://www.w3.org/1999/xlink" x="0px" y="0px"
	 width="200.8px" height="57.5px" viewBox="0 0 200.8 57.5" style="enable-background:new 0 0 200.8 57.5;" xml:space="preserve">
<style type="text/css">
	.st0{fill:#FFFFFF;stroke:#231F20;stroke-width:3;stroke-miterlimit:10;}
	.st1{fill:#FFFFFF;stroke:#ED1E79;stroke-width:3;stroke-miterlimit:10;}
	.st2{fill:#ED1E79;}
	.st3{fill:none;stroke:#000000;stroke-miterlimit:10;}
</style>
<g>
	<path class="st0" d="M42,23c0,11.2-20.3,32.3-20.3,32.3S1.5,34.2,1.5,23C1.9,11.8,11.2,3,22.4,3.4C33.1,3.7,41.7,12.3,42,23z"/>
	<path d="M20.2,14.4h3.7l5.5,15.7h-3.5l-1-3.2h-5.8L18,30.1h-3.4L20.2,14.4z M20,24.2h4L22,18L20,24.2z"/>
</g>
<g>
	<path class="st1" d="M120.6,22.7c0,11.2-20.3,32.3-20.3,32.3S80.1,33.9,80.1,22.7c0-11.2,9.1-20.3,20.3-20.3
		C111.6,2.4,120.6,11.5,120.6,22.7C120.6,22.7,120.6,22.7,120.6,22.7L120.6,22.7z"/>
	<path class="st2" d="M106,15.9c0.5,0.7,0.7,1.5,0.7,2.4c0,0.8-0.2,1.7-0.7,2.3c-0.3,0.4-0.7,0.7-1.2,0.9c0.7,0.2,1.4,0.7,1.8,1.4
		c0.4,0.7,0.6,1.5,0.6,2.3c0,0.9-0.2,1.8-0.7,2.5c-0.6,1-1.7,1.8-2.9,2c-0.7,0.1-1.5,0.2-2.2,0.2h-7V14.2h7.6
		C103.5,14.1,105,14.7,106,15.9z M97.5,16.9v3.5h3.8c0.6,0,1.2-0.1,1.7-0.5c0.5-0.3,0.7-0.8,0.6-1.4c0.1-0.6-0.3-1.2-0.8-1.5
		c-0.6-0.2-1.2-0.3-1.8-0.2L97.5,16.9z M97.5,22.9v4.2h3.8c0.5,0,1.1-0.1,1.6-0.3c0.7-0.4,1.1-1.2,1-2c0.1-0.7-0.3-1.4-1-1.7
		c-0.5-0.2-1-0.3-1.6-0.3L97.5,22.9z"/>
</g>
<g>
	<path class="st0" d="M199.2,22.7c0,11.2-20.3,32.4-20.3,32.4s-20.3-21.2-20.3-32.3c0-11.2,9.1-20.3,20.3-20.3
		C190.2,2.4,199.3,11.5,199.2,22.7L199.2,22.7z"/>
	<path d="M174.5,15.8c1.3-1.3,3-2,4.8-1.9c2.6,0,4.5,0.9,5.7,2.6c0.6,0.9,1,1.9,1.1,2.9h-3.3c-0.1-0.6-0.4-1.2-0.8-1.7
		c-1.4-1.4-3.6-1.4-5,0c-0.1,0.1-0.2,0.2-0.3,0.4c-0.7,1.2-1.1,2.6-1,4.1c-0.1,1.4,0.3,2.8,1.1,4c0.6,0.8,1.6,1.3,2.7,1.3
		c1,0.1,1.9-0.4,2.6-1.1c0.4-0.5,0.7-1.2,0.8-1.8h3.2c-0.2,1.6-1,3.1-2.1,4.2c-1.2,1.1-2.8,1.7-4.4,1.6c-2,0.1-3.9-0.7-5.3-2.2
		c-1.4-1.7-2-3.8-1.9-6C172.1,19.8,172.9,17.5,174.5,15.8z"/>
</g>
<line class="st3" x1="47" y1="22.3" x2="75.4" y2="22.3"/>
<line class="st3" x1="125.6" y1="22.3" x2="154" y2="22.3"/>
</svg>
